# xmcd CD database file
#
# Track frame offsets:
#	150
#	34311
#	46824
#	75339
#	101681
#	129030
#	155634
#	172386
#	209224
#	232985
#
# Disc length: 3518 seconds
#
# Revision: 0
# Processed by: cddbd v1.5.2PL0 Copyright (c) Steve Scherf et al.
# Submitted via: CDex 1.51
#
DISCID=820dbc0a
DTITLE=Gilbert Holmström Quartet - The Mandelbrot Set
DYEAR=2007
DGENRE=Jazz
TTITLE0=Blues for NYCF
TTITLE1=The Mandelbrot Set
TTITLE2=Tobago
TTITLE3=Grå lagerrock
TTITLE4=Syra
TTITLE5=Chicken Stew
TTITLE6=Som vindar
TTITLE7=Tryck på alla knappar
TTITLE8=Charles not Charlie
TTITLE9=Á la Don
EXTD=YEAR: 2007
EXTT0=
EXTT1=
EXTT2=
EXTT3=
EXTT4=
EXTT5=
EXTT6=
EXTT7=
EXTT8=
EXTT9=
PLAYORDER=
